<?xml version="1.0" encoding="utf-8"?>
<!-- Generator: Adobe Illustrator 18.1.1, SVG Export Plug-In . SVG Version: 6.00 Build 0)  -->
<svg version="1.1" id="Layer_1" xmlns="http://www.w3.org/2000/svg" xmlns:xlink="http://www.w3.org/1999/xlink" x="0px" y="0px"
	 viewBox="-285 268.3 181 40" enable-background="new -285 268.3 181 40" xml:space="preserve">
<path fill="#FFFFFF" d="M-233.1,312.7"/>
<path fill="none" stroke="#489FD8" stroke-width="2.7444" stroke-miterlimit="10" d="M-252.7,301.6c1.2,0.9,2.7,1.4,4.3,1.4
	c3,0,5.6-1.8,6.7-4.5c1.1,0.7,2.2,1.2,3.6,1.2c3.9,0,7.1-3.4,7.1-7.6c0-4.2-3.1-7.5-7-7.6c0.3-0.6,0.6-0.8,0.6-1.5
	c0-2.1-1.7-3.7-3.7-3.7c-0.7,0-1,0.3-1.6,0.7c0.8-2-0.2-5.1-3.8-5.8c-3.6-0.7-6.2,3.9-6.2,3.9s2.8,3.8,3.1,6.6
	c0.3,2.8-3.1,3.2-3.1,3.2s-3.4-0.4-3.1-3.2c0.3-2.8,3.1-6.6,3.1-6.6s-2.6-4.6-6.2-3.9c-3.6,0.7-4.6,3.8-3.8,5.8
	c-0.6-0.3-0.9-0.7-1.6-0.7c-2.1,0-3.7,1.7-3.7,3.7c0,0.7,0.3,1,0.6,1.5c-3.9,0-7,3.4-7,7.6c0,4.2,3.2,7.6,7.1,7.6
	c1.4,0,2.5-0.5,3.6-1.2c1.1,2.6,3.7,4.5,6.7,4.5C-255.4,302.9-253.9,302.4-252.7,301.6C-252.7,301.6-252.7,301.6-252.7,301.6z"/>
<text transform="matrix(1.1308 0 0 1 -224.4239 296.5834)" fill="#489FD8" font-family="'Futura-Medium'" font-size="21.9062">dreambnb</text>
</svg>
