<?xml version="1.0" encoding="utf-8"?>
<!-- Generator: Adobe Illustrator 15.0.0, SVG Export Plug-In . SVG Version: 6.00 Build 0)  -->
<!DOCTYPE svg PUBLIC "-//W3C//DTD SVG 1.1//EN" "http://www.w3.org/Graphics/SVG/1.1/DTD/svg11.dtd">
<svg version="1.1" id="Layer_1" xmlns="http://www.w3.org/2000/svg" xmlns:xlink="http://www.w3.org/1999/xlink" x="0px" y="0px"
	 width="269.459px" height="60px" viewBox="0 0 269.459 60" enable-background="new 0 0 269.459 60" xml:space="preserve">
<path fill="#FFFFFF" d="M51.856,44.437"/>
<path fill="none" stroke="#489FD8" stroke-width="2.7444" stroke-miterlimit="10" d="M51.898,49.934
	c1.802,1.297,4.015,2.06,6.403,2.06c4.555,0,8.462-2.773,10.128-6.725c1.64,1.101,3.323,1.872,5.401,1.872
	c5.879,0,10.645-5.088,10.645-11.363c0-6.231-4.701-11.292-10.524-11.358c0.51-0.847,0.903-1.238,0.903-2.299
	c0-3.091-2.506-5.598-5.599-5.598c-1.062,0-1.503,0.47-2.349,0.982c1.158-3.009-0.31-7.64-5.711-8.644
	c-5.401-1.003-9.339,5.866-9.339,5.866s4.245,5.633,4.708,9.878c0.463,4.245-4.708,4.863-4.708,4.863s-5.17-0.618-4.708-4.863
	c0.464-4.245,4.708-9.878,4.708-9.878s-3.936-6.87-9.338-5.866c-5.403,1.003-6.868,5.634-5.711,8.644
	c-0.846-0.513-1.288-0.982-2.349-0.982c-3.093,0-5.599,2.507-5.599,5.598c0,1.062,0.394,1.453,0.905,2.299
	c-5.823,0.066-10.524,5.127-10.524,11.358c0,6.275,4.765,11.363,10.644,11.363c2.078,0,3.763-0.771,5.401-1.872
	c1.664,3.951,5.572,6.725,10.129,6.725c2.39,0,4.601-0.763,6.402-2.06H51.898z"/>
<text transform="matrix(1.1308 0 0 1 94.3091 42.4512)" fill="#489FD8" font-family="'Futura-Medium'" font-size="32.8885" letter-spacing="-0.884">dreambnb</text>
</svg>
