<?xml version="1.0" encoding="utf-8"?>
<!-- Generator: Adobe Illustrator 18.1.1, SVG Export Plug-In . SVG Version: 6.00 Build 0)  -->
<svg version="1.1" id="Layer_1" xmlns="http://www.w3.org/2000/svg" xmlns:xlink="http://www.w3.org/1999/xlink" x="0px" y="0px"
	 viewBox="0 0 125 76" enable-background="new 0 0 125 76" xml:space="preserve">
<path fill="#B2B2B2" d="M110.4,35.8c-2.3-4.4-6.7-7.6-11.6-8.6c0-4.4-2.5-8.8-6.4-11c-3.9-2.2-8.9-2.1-12.7,0.3
	C78,9.6,71.1,4.3,64,4.4l0,0.2H64l0-0.2c-7.1-0.1-14,5.1-15.8,12c-3.8-2.3-8.8-2.4-12.7-0.3s-6.4,6.6-6.4,11
	c-4.9,1-9.3,4.2-11.6,8.6C14.9,41,15.8,47.9,19,52.6c3.7,5.6,11.2,7.5,17.5,8.5c2.1,0.3,4.2,0.6,6.3,0.7c-1,8.9-6.6,11.4-6.6,11.4
	c11.4,0,16-6.8,17.7-11c2.8,0,5.6,0,8.3,0v0h3.3v0c8.6,0,17.3,0.3,25.8-1.1c6.3-1,13.8-2.9,17.5-8.5C112.2,47.9,113.1,41,110.4,35.8
	z"/>
<linearGradient id="SVGID_1_" gradientUnits="userSpaceOnUse" x1="36.8907" y1="-15.0983" x2="87.2602" y2="97.2644">
	<stop  offset="0" style="stop-color:#FFFFFF"/>
	<stop  offset="1" style="stop-color:#6BC7E2"/>
</linearGradient>
<path fill="url(#SVGID_1_)" d="M108.9,35c-2.3-4.4-6.7-7.6-11.6-8.6c0-4.4-2.5-8.8-6.4-11c-3.9-2.2-8.9-2.1-12.7,0.3
	c-1.8-6.9-8.6-12.1-15.8-12l0,0.2h-0.1l0-0.2c-7.1-0.1-14,5.1-15.8,12c-3.8-2.3-8.8-2.4-12.7-0.3s-6.4,6.6-6.4,11
	c-4.9,1-9.3,4.2-11.6,8.6c-2.7,5.2-1.7,12.1,1.4,16.8c3.7,5.6,11.2,7.5,17.5,8.5c2.1,0.3,4.2,0.6,6.3,0.7c-1,8.9-6.6,11.4-6.6,11.4
	c11.4,0,16-6.8,17.7-11c2.8,0,5.6,0,8.3,0v0h3.3v0c8.6,0,17.3,0.3,25.8-1.1c6.3-1,13.8-2.9,17.5-8.5C110.7,47,111.6,40.2,108.9,35z"
	/>
<g>
	<text transform="matrix(1 0 0 1 29.8206 37.7396)" fill="#016393" font-family="'ArialRoundedMTBold'" font-size="20.5815">dream</text>
</g>
<g>
	<text transform="matrix(1 0 0 1 43.2214 53.7499)" fill="#016393" font-family="'ArialRoundedMTBold'" font-size="20.5815">bnb</text>
</g>
</svg>
